<svg id="Capa_1" data-name="Capa 1" xmlns="http://www.w3.org/2000/svg" viewBox="0 0 222.09 138.72"><defs><style>.cls-1{fill:#34b3ea;}.cls-2{fill:#fff;}.cls-3,.cls-8{fill:#89d4f2;}.cls-4{fill:#666;}.cls-5{font-size:11px;}.cls-5,.cls-9{fill:#67625c;font-family:MyriadPro-Regular, Myriad Pro;}.cls-6{letter-spacing:0em;}.cls-7{letter-spacing:-0.01em;}.cls-8{stroke:#89d4f2;stroke-miterlimit:10;}.cls-9{font-size:5px;}.cls-10{letter-spacing:0em;}.cls-11{letter-spacing:0em;}.cls-12{letter-spacing:0em;}.cls-13{letter-spacing:0.01em;}.cls-14{letter-spacing:0.03em;}.cls-15{letter-spacing:0em;}.cls-16{letter-spacing:-0.01em;}.cls-17{letter-spacing:0em;}.cls-18{letter-spacing:0em;}.cls-19{letter-spacing:-0.03em;}.cls-20{letter-spacing:-0.01em;}.cls-21{letter-spacing:0em;}</style></defs><title>svg</title><rect class="cls-1" width="222.09" height="138.72"/><circle class="cls-2" cx="33.04" cy="45.69" r="19.84"/><path class="cls-3" d="M341.52,279.66h1.1v.46h-1.55A.45.45,0,0,1,341.52,279.66Z" transform="translate(-310.57 -227.04)"/><rect class="cls-3" x="30.5" y="45.8" width="9.33" height="0.46"/><rect class="cls-3" x="30.5" y="44.43" width="9.33" height="0.46"/><path class="cls-3" d="M341.07,274.21h6.22a.45.45,0,0,1-.45.45h-5.77Z" transform="translate(-310.57 -227.04)"/><path class="cls-3" d="M341.07,270.08h6.22a.45.45,0,0,1-.45.46h-5.77Z" transform="translate(-310.57 -227.04)"/><rect class="cls-3" x="37.51" y="47.17" width="2.34" height="0.46"/><rect class="cls-3" x="37.51" y="40.25" width="2.34" height="0.46"/><rect class="cls-3" x="30.5" y="48.52" width="9.33" height="0.46"/><rect class="cls-3" x="30.5" y="51.26" width="9.33" height="0.46"/><rect class="cls-3" x="34.01" y="49.89" width="5.84" height="0.46"/><rect class="cls-3" x="30.5" y="49.89" width="2.72" height="0.46"/><rect class="cls-3" x="32.84" y="52.63" width="7.01" height="0.46"/><path class="cls-4" d="M355.42,260.61H344a1.9,1.9,0,0,0-1.9,1.89v.41h-.16a1.9,1.9,0,0,0-1.9,1.89V265a2.18,2.18,0,0,0-1.84,2.15v14a2.2,2.2,0,0,0,2.19,2.19h10.88a2.2,2.2,0,0,0,2.19-2,1.9,1.9,0,0,0,1.84-1.9V279h.17a1.9,1.9,0,0,0,1.89-1.9V262.5A1.89,1.89,0,0,0,355.42,260.61Zm-4.18,22H340.36a1.46,1.46,0,0,1-1.46-1.46v-14a1.46,1.46,0,0,1,1.46-1.46h10.88a1.47,1.47,0,0,1,1.46,1.46v14A1.46,1.46,0,0,1,351.24,282.6Zm3.28-3.19a1.18,1.18,0,0,1-1.11,1.17V266.85a1.91,1.91,0,0,0-1.9-1.9H340.72v-.15a1.18,1.18,0,0,1,1.17-1.16h11.46a1.18,1.18,0,0,1,1.17,1.16v14.61Zm2.06-2.3a1.18,1.18,0,0,1-1.11,1.17V264.55a1.91,1.91,0,0,0-1.9-1.9h-10.8v-.15a1.17,1.17,0,0,1,1.16-1.16H355.4a1.18,1.18,0,0,1,1.17,1.16v14.61Z" transform="translate(-310.57 -227.04)"/><path class="cls-4" d="M328.67,276.25h2.12V270H329v-1.2a6.26,6.26,0,0,0,2.28-.82h1.45v8.25h1.84v1.59h-5.9Z" transform="translate(-310.57 -227.04)"/><text class="cls-5" transform="translate(62.35 12.63)">Explo<tspan class="cls-6" x="25.4" y="0">r</tspan><tspan x="28.94" y="0">a los 6 sis</tspan><tspan class="cls-7" x="71.16" y="0">t</tspan><tspan x="74.73" y="0">emas</tspan></text><circle class="cls-2" cx="111.38" cy="46.06" r="19.84"/><rect class="cls-3" x="113.86" y="41.13" width="7.67" height="0.58"/><rect class="cls-3" x="110.98" y="41.17" width="1.92" height="0.58"/><rect class="cls-3" x="113.86" y="42.96" width="7.67" height="0.58"/><rect class="cls-3" x="110.98" y="43" width="1.92" height="0.58"/><rect class="cls-3" x="113.86" y="44.91" width="7.67" height="0.58"/><rect class="cls-3" x="110.98" y="44.95" width="1.92" height="0.58"/><rect class="cls-3" x="113.86" y="47.1" width="7.67" height="0.58"/><rect class="cls-3" x="110.98" y="47.14" width="1.92" height="0.58"/><rect class="cls-3" x="113.86" y="49.06" width="7.67" height="0.58"/><path class="cls-3" d="M422,276.11h1.46v.59h-1.92v-.13A.47.47,0,0,1,422,276.11Z" transform="translate(-310.57 -227.04)"/><path class="cls-3" d="M433.46,283.76H419.77a2.2,2.2,0,0,1-2.19-2.19V266a2.2,2.2,0,0,1,2.19-2.19h13.69a2.19,2.19,0,0,1,2.19,2.19v15.55A2.2,2.2,0,0,1,433.46,283.76Zm-13.69-19.22a1.47,1.47,0,0,0-1.46,1.46v15.55a1.47,1.47,0,0,0,1.46,1.46h13.69a1.46,1.46,0,0,0,1.46-1.46V266a1.46,1.46,0,0,0-1.46-1.46Z" transform="translate(-310.57 -227.04)"/><rect class="cls-3" x="113.86" y="50.88" width="3.58" height="0.58"/><path class="cls-3" d="M422.88,277.59a.5.5,0,0,1,.18,0,.93.93,0,0,1,.22,0l0,0-.42.63.45.7a.55.55,0,0,1-.29.11.29.29,0,0,1-.26-.15l-.18-.29-.24.4a.42.42,0,0,1-.18,0,.78.78,0,0,1-.22,0l0,0,.44-.69-.42-.64a.49.49,0,0,1,.31-.09.25.25,0,0,1,.13,0,.17.17,0,0,1,.09.11l.15.23Z" transform="translate(-310.57 -227.04)"/><path class="cls-4" d="M429.52,263.77V263H424v.73h-4.83V281.9h15V263.77Zm3.93,17.42H419.94V264.5h13.51Z" transform="translate(-310.57 -227.04)"/><path class="cls-4" d="M431.33,278.87l-.28,1.28,1.32-.08,1.37-1.18,3.21-2.81-1-1.21Z" transform="translate(-310.57 -227.04)"/><path class="cls-4" d="M430.71,280.42l.36-1.72,4.86-4.25,1.4,1.61-4.85,4.25Z" transform="translate(-310.57 -227.04)"/><path class="cls-4" d="M406.9,277.08c2.67-2.39,4.26-4.24,4.26-5.75a1.41,1.41,0,0,0-1.48-1.59,2.57,2.57,0,0,0-1.81,1l-1.06-1.05a4,4,0,0,1,3.12-1.5,2.89,2.89,0,0,1,3.11,3c0,1.79-1.48,3.69-3.27,5.46a15,15,0,0,1,1.59-.11h2.13v1.64H406.9Z" transform="translate(-310.57 -227.04)"/><circle class="cls-2" cx="189.26" cy="45.7" r="19.84"/><path class="cls-4" d="M509.17,278.08v-7.63a5.11,5.11,0,0,0-5.11-5.11h-1.13a5.11,5.11,0,0,0-5.11,5.11v7.72a3.53,3.53,0,0,0-1.63,3,4.69,4.69,0,0,0,.09.84l.08.27h14.42l.07-.27a3.64,3.64,0,0,0-1.68-3.93Zm-9.86-.38a3.54,3.54,0,0,0-.73.07v-7.32a4.39,4.39,0,0,1,4.38-4.38h1.14a4.38,4.38,0,0,1,4.38,4.38v7.3a3.55,3.55,0,0,0-.57-.05h-8.6Zm10.9,3.87H497a2.48,2.48,0,0,1,0-.38,2.69,2.69,0,0,1,2.59-2.76h8.12a2.69,2.69,0,0,1,2.6,2.76A2.32,2.32,0,0,0,510.21,281.57Z" transform="translate(-310.57 -227.04)"/><path class="cls-3" d="M503.38,275.2a.77.77,0,1,1,.77-.77.75.75,0,0,1-.77.77Zm-.47-1.95-.18-3.82h1.33l-.18,3.82Z" transform="translate(-310.57 -227.04)"/><path class="cls-3" d="M496.45,271.49h-1.83a.46.46,0,0,1,0-.91h1.83a.46.46,0,0,1,0,.91Z" transform="translate(-310.57 -227.04)"/><path class="cls-3" d="M512.55,271.49h-1.83a.46.46,0,0,1,0-.91h1.83a.46.46,0,0,1,0,.91Z" transform="translate(-310.57 -227.04)"/><path class="cls-3" d="M503.53,264.15a.45.45,0,0,1-.46-.45v-1.83a.46.46,0,0,1,.92,0v1.83A.45.45,0,0,1,503.53,264.15Z" transform="translate(-310.57 -227.04)"/><path class="cls-3" d="M509,266a.48.48,0,0,1-.33-.13.45.45,0,0,1,0-.64l1.28-1.27a.43.43,0,0,1,.64,0,.45.45,0,0,1,0,.63l-1.28,1.28A.43.43,0,0,1,509,266Z" transform="translate(-310.57 -227.04)"/><path class="cls-3" d="M498,266a.5.5,0,0,1-.33-.13l-1.27-1.28a.42.42,0,0,1,0-.63.45.45,0,0,1,.64,0l1.27,1.27a.43.43,0,0,1,0,.64A.4.4,0,0,1,498,266Z" transform="translate(-310.57 -227.04)"/><path class="cls-4" d="M482.81,276.66l.91-1.24a3.17,3.17,0,0,0,2.19,1c1,0,1.68-.49,1.68-1.37s-.56-1.57-2.72-1.57v-1.4c1.81,0,2.4-.62,2.4-1.5a1.18,1.18,0,0,0-1.32-1.24,2.86,2.86,0,0,0-1.86.87l-1-1.2a4.3,4.3,0,0,1,3-1.2c1.9,0,3.2.93,3.2,2.61a2.36,2.36,0,0,1-1.65,2.24v.07a2.48,2.48,0,0,1,2,2.43c0,1.81-1.59,2.87-3.45,2.87A4.23,4.23,0,0,1,482.81,276.66Z" transform="translate(-310.57 -227.04)"/><circle class="cls-2" cx="33.51" cy="109.35" r="19.84"/><path class="cls-4" d="M351.32,326.16a7.48,7.48,0,0,0-6.26,11.57l-5.13,5.13a1.8,1.8,0,0,0,0,2.56,1.81,1.81,0,0,0,2.56,0l4.31-4.49a.48.48,0,0,0-.68-.68l-4.31,4.49a.83.83,0,0,1-1.18-1.18l5-5a7.49,7.49,0,1,0,5.66-12.36Zm0,14.09a6.63,6.63,0,1,1,6.63-6.62A6.63,6.63,0,0,1,351.32,340.25Z" transform="translate(-310.57 -227.04)"/><path class="cls-4" d="M352.36,332.2l-1.86,1.86-.56-.56a.44.44,0,0,0-.62.62l.87.87a.43.43,0,0,0,.62,0l2.17-2.17a.44.44,0,0,0,0-.62A.46.46,0,0,0,352.36,332.2Z" transform="translate(-310.57 -227.04)"/><path class="cls-3" d="M351.32,338.92a5.31,5.31,0,1,1,5.32-5.31A5.31,5.31,0,0,1,351.32,338.92Zm0-9.35a4,4,0,1,0,4,4A4,4,0,0,0,351.32,329.57Z" transform="translate(-310.57 -227.04)"/><path class="cls-4" d="M335.5,338.7h-1.17v2.56H332.5V338.7h-4.18v-1.33l3.67-5.95h2.34v5.78h1.17Zm-3-1.5v-2c0-.57.06-1.46.07-2h0c-.24.51-.51,1.06-.79,1.59l-1.53,2.44Z" transform="translate(-310.57 -227.04)"/><circle class="cls-2" cx="111.4" cy="109.35" r="19.84"/><path class="cls-4" d="M406.71,340.09l.91-1.24a3.09,3.09,0,0,0,2.17,1,1.66,1.66,0,0,0,1.74-1.81,1.6,1.6,0,0,0-1.67-1.79,2.34,2.34,0,0,0-1.47.52l-.9-.59.28-4.76H413v1.64h-3.58l-.18,2.08a2.63,2.63,0,0,1,1.19-.27,2.86,2.86,0,0,1,3,3.12,3.33,3.33,0,0,1-3.45,3.45A4.49,4.49,0,0,1,406.71,340.09Z" transform="translate(-310.57 -227.04)"/><path class="cls-8" d="M420.23,332.06h.33V334a.68.68,0,0,0,.4.6.7.7,0,0,0,.72-.14v0l1.94-2.37h8.27a1.3,1.3,0,0,0,1.29-1.3v-6.48a1.3,1.3,0,0,0-1.29-1.3H420.25a1.3,1.3,0,0,0-1.29,1.3v6.48A1.27,1.27,0,0,0,420.23,332.06Zm-.64-7.78a.64.64,0,0,1,.64-.64h11.65a.64.64,0,0,1,.64.64v6.48a.64.64,0,0,1-.64.64h-8.43l-.13,0-.06,0s0,0-.05,0l0,0-2,2.46v-2.26a.32.32,0,0,0-.33-.33h-.63a.63.63,0,0,1-.64-.64v-6.48Z" transform="translate(-310.57 -227.04)"/><path class="cls-4" d="M428.79,341a3.83,3.83,0,1,0-4.19,0,5.1,5.1,0,0,0-4.55,5.07,2.18,2.18,0,0,0,0,.35l0,.51h13l0-.51c0-.11,0-.22,0-.35A5.19,5.19,0,0,0,428.79,341ZM424,337.81a2.74,2.74,0,1,1,2.73,2.73A2.73,2.73,0,0,1,424,337.81Zm-2.83,8a4,4,0,0,1,4-3.78H428a4,4,0,0,1,4,3.78Z" transform="translate(-310.57 -227.04)"/><circle class="cls-2" cx="189.42" cy="109.42" r="19.84"/><path class="cls-4" d="M488.74,333.59a2.12,2.12,0,0,0-1.51-.71c-1.13,0-2.06.86-2.14,3.31a2.86,2.86,0,0,1,2-1.06c1.64,0,2.81,1,2.81,3.1a3.08,3.08,0,0,1-3.08,3.29c-1.88,0-3.55-1.5-3.55-5,0-3.67,1.83-5.24,3.8-5.24a3.61,3.61,0,0,1,2.67,1.12Zm-.62,4.64c0-1.17-.54-1.72-1.38-1.72a1.94,1.94,0,0,0-1.61,1.05c.18,1.78.86,2.48,1.68,2.48S488.12,339.44,488.12,338.23Z" transform="translate(-310.57 -227.04)"/><rect class="cls-3" x="190.23" y="109.13" width="6.22" height="0.31"/><rect class="cls-3" x="190.23" y="108.22" width="6.22" height="0.31"/><rect class="cls-3" x="190.23" y="110.04" width="4.14" height="0.31"/><rect class="cls-3" x="190.23" y="107.29" width="4.14" height="0.31"/><rect class="cls-3" x="194.9" y="110.04" width="1.55" height="0.31"/><rect class="cls-3" x="194.9" y="105.43" width="1.55" height="0.31"/><rect class="cls-3" x="190.23" y="110.94" width="6.22" height="0.31"/><rect class="cls-3" x="190.23" y="112.76" width="6.22" height="0.31"/><rect class="cls-3" x="192.56" y="111.85" width="3.89" height="0.31"/><rect class="cls-3" x="190.23" y="111.85" width="1.81" height="0.31"/><rect class="cls-3" x="190.23" y="113.68" width="1.04" height="0.31"/><rect class="cls-3" x="191.8" y="113.68" width="4.67" height="0.31"/><path class="cls-4" d="M509,329.52h-7.65a1.31,1.31,0,0,0-1.3,1.3v.26a2.08,2.08,0,0,0-1.22,1.89v8.13a2.11,2.11,0,0,0,2.1,2.1h6a2.11,2.11,0,0,0,2-1.35H509a1.31,1.31,0,0,0,1.3-1.3v-9.73A1.29,1.29,0,0,0,509,329.52Zm-2,13.13h-6a1.55,1.55,0,0,1-1.55-1.55V333a1.55,1.55,0,0,1,1.55-1.55h6a1.55,1.55,0,0,1,1.55,1.55v8.13A1.56,1.56,0,0,1,507,342.65Zm2.78-2.1a.77.77,0,0,1-.68.75v-9.13a1.3,1.3,0,0,0-1.3-1.3h-7.15v-.07a.74.74,0,0,1,.75-.75H509a.75.75,0,0,1,.74.75v9.75Z" transform="translate(-310.57 -227.04)"/><path class="cls-3" d="M505.15,348.84a.27.27,0,0,1-.27-.26.3.3,0,0,1,.26-.29,11.76,11.76,0,0,0,1.77-.24.29.29,0,0,1,.33.22.3.3,0,0,1-.22.33,12.75,12.75,0,0,1-1.87.24Zm-1.46,0h0a10.46,10.46,0,0,1-1.85-.28.27.27,0,0,1-.2-.33.28.28,0,0,1,.33-.2,11.62,11.62,0,0,0,1.77.26.29.29,0,0,1,.26.29A.36.36,0,0,1,503.69,348.84Zm4.68-.62a.29.29,0,0,1-.26-.19.28.28,0,0,1,.17-.34,11.23,11.23,0,0,0,1.64-.7.27.27,0,0,1,.36.11.27.27,0,0,1-.11.37,11.72,11.72,0,0,1-1.71.73A.16.16,0,0,1,508.37,348.22Zm-7.89-.06a.15.15,0,0,1-.09,0,11.34,11.34,0,0,1-1.72-.75.27.27,0,0,1-.11-.36.28.28,0,0,1,.37-.11,15.51,15.51,0,0,0,1.62.73.27.27,0,0,1,.17.35A.24.24,0,0,1,500.48,348.16Zm10.83-1.4a.24.24,0,0,1-.22-.13.28.28,0,0,1,.07-.39,11.27,11.27,0,0,0,1.39-1.11.26.26,0,0,1,.38,0,.28.28,0,0,1,0,.38,12.68,12.68,0,0,1-1.46,1.17A.18.18,0,0,1,511.31,346.76Zm-13.75-.1a.25.25,0,0,1-.16-.05,16.68,16.68,0,0,1-1.45-1.19.26.26,0,0,1,0-.38.27.27,0,0,1,.39,0,9.79,9.79,0,0,0,1.37,1.13.27.27,0,0,1-.15.49Zm16.17-2.11a.26.26,0,0,1-.18-.08.27.27,0,0,1,0-.38,14.17,14.17,0,0,0,1-1.44.27.27,0,0,1,.38-.09.28.28,0,0,1,.09.38,12.48,12.48,0,0,1-1.1,1.52A.29.29,0,0,1,513.73,344.55Zm-18.56-.13a.31.31,0,0,1-.22-.11,13.61,13.61,0,0,1-1.08-1.53.28.28,0,0,1,.48-.3,10.87,10.87,0,0,0,1,1.46.29.29,0,0,1,0,.39A.19.19,0,0,1,495.17,344.42Zm20.32-2.65a.2.2,0,0,1-.11,0,.25.25,0,0,1-.13-.36,10.53,10.53,0,0,0,.6-1.68.24.24,0,0,1,.33-.18.24.24,0,0,1,.18.33,11.12,11.12,0,0,1-.64,1.75A.23.23,0,0,1,515.49,341.77Zm-22-.14a.27.27,0,0,1-.25-.17,10.92,10.92,0,0,1-.62-1.77.27.27,0,0,1,.2-.33.29.29,0,0,1,.33.2,10.11,10.11,0,0,0,.58,1.68.28.28,0,0,1-.15.37Zm23-3h0a.29.29,0,0,1-.24-.31,11.69,11.69,0,0,0,.13-1.79v0a.28.28,0,1,1,.55,0v0a13.21,13.21,0,0,1-.15,1.87A.27.27,0,0,1,516.42,338.63Zm-23.86-.16a.26.26,0,0,1-.27-.24,12.13,12.13,0,0,1-.11-1.7v-.16a.27.27,0,0,1,.27-.27h0a.27.27,0,0,1,.27.27v.16a12.75,12.75,0,0,0,.11,1.63.29.29,0,0,1-.23.31Zm23.89-3.16a.3.3,0,0,1-.27-.24,10.63,10.63,0,0,0-.35-1.75A.3.3,0,0,1,516,333a.29.29,0,0,1,.34.19,12.49,12.49,0,0,1,.37,1.82.28.28,0,0,1-.24.31Zm-23.89-.13h0a.28.28,0,0,1-.23-.31,14,14,0,0,1,.38-1.82.29.29,0,0,1,.35-.19.29.29,0,0,1,.18.35,11.33,11.33,0,0,0-.37,1.75A.26.26,0,0,1,492.56,335.18Zm23.05-3a.26.26,0,0,1-.25-.16,13.26,13.26,0,0,0-.82-1.59.28.28,0,1,1,.47-.29,14.48,14.48,0,0,1,.86,1.66.28.28,0,0,1-.15.36ZM493.44,332h-.11a.28.28,0,0,1-.15-.37,15.52,15.52,0,0,1,.88-1.66.28.28,0,1,1,.47.29,13.39,13.39,0,0,0-.84,1.59A.29.29,0,0,1,493.44,332Zm20.51-2.7a.28.28,0,0,1-.22-.11,13.5,13.5,0,0,0-1.2-1.31.27.27,0,0,1,.36-.4,10.24,10.24,0,0,1,1.26,1.37.27.27,0,0,1,0,.38A.25.25,0,0,1,514,329.32Zm-18.8-.11a.28.28,0,0,1-.16,0,.28.28,0,0,1,0-.38,11.72,11.72,0,0,1,1.28-1.36.26.26,0,0,1,.38,0,.27.27,0,0,1,0,.39,13.5,13.5,0,0,0-1.22,1.29A.35.35,0,0,1,495.15,329.21Zm16.43-2.15a.27.27,0,0,1-.16-.06,13.71,13.71,0,0,0-1.52-.93.27.27,0,0,1-.11-.36.28.28,0,0,1,.37-.11,13.44,13.44,0,0,1,1.58,1,.28.28,0,0,1,.06.39A.34.34,0,0,1,511.58,327.06Zm-14-.09a.28.28,0,0,1-.22-.11.27.27,0,0,1,.08-.38,12.39,12.39,0,0,1,1.6-1,.26.26,0,0,1,.37.13.26.26,0,0,1-.13.36,14.68,14.68,0,0,0-1.53.91A.29.29,0,0,1,497.54,327Zm11.14-1.46a.13.13,0,0,1-.09,0,12.54,12.54,0,0,0-1.72-.49.3.3,0,0,1-.22-.33.3.3,0,0,1,.33-.22,12.2,12.2,0,0,1,1.79.51.27.27,0,0,1,.16.35A.25.25,0,0,1,508.68,325.51Zm-8.24-.06a.28.28,0,0,1-.25-.18.27.27,0,0,1,.16-.35,12.39,12.39,0,0,1,1.81-.49.28.28,0,0,1,.11.55,11.21,11.21,0,0,0-1.72.47Zm5-.65h0c-.31,0-.63,0-.94,0h0c-.28,0-.55,0-.83,0a.29.29,0,0,1-.29-.26.28.28,0,0,1,.26-.29c.29,0,.58,0,.86,0s.67,0,1,0a.29.29,0,0,1,.26.29A.32.32,0,0,1,505.48,324.8Z" transform="translate(-310.57 -227.04)"/><path class="cls-2" d="M504.37,321.69a2.4,2.4,0,1,0,2.39,2.39,2.4,2.4,0,0,0-2.39-2.39Zm0,4.35a2,2,0,1,1,1.95-2,2,2,0,0,1-1.95,2Z" transform="translate(-310.57 -227.04)"/><path class="cls-4" d="M504.37,326a2,2,0,1,1,1.95-2,2,2,0,0,1-1.95,2Z" transform="translate(-310.57 -227.04)"/><path class="cls-2" d="M504.77,323.55a.45.45,0,0,0-.35-.14c-.14,0-.21,0-.21.18s.82.26.82.86a.6.6,0,0,1-.5.62v.33h-.32v-.31a1.15,1.15,0,0,1-.57-.24l.22-.33a.66.66,0,0,0,.44.18c.16,0,.23-.07.23-.2,0-.29-.82-.31-.82-.87a.58.58,0,0,1,.48-.59v-.33h.33V323a.87.87,0,0,1,.47.26Z" transform="translate(-310.57 -227.04)"/><path class="cls-2" d="M504.37,346.32a2.39,2.39,0,1,0,2.39,2.39,2.4,2.4,0,0,0-2.39-2.39Zm0,4.34a1.95,1.95,0,1,1,1.95-2,1.95,1.95,0,0,1-1.95,2Z" transform="translate(-310.57 -227.04)"/><path class="cls-4" d="M504.37,350.66a1.95,1.95,0,1,1,1.95-2,1.95,1.95,0,0,1-1.95,2Z" transform="translate(-310.57 -227.04)"/><path class="cls-2" d="M504.77,348.18a.46.46,0,0,0-.35-.15c-.14,0-.21.06-.21.19s.82.25.82.85a.6.6,0,0,1-.5.62V350h-.32v-.31a1.23,1.23,0,0,1-.57-.23l.22-.33a.72.72,0,0,0,.44.18c.16,0,.23-.07.23-.2,0-.29-.82-.31-.82-.88a.56.56,0,0,1,.48-.58v-.33h.33v.33a.86.86,0,0,1,.47.25Z" transform="translate(-310.57 -227.04)"/><path class="cls-2" d="M514.68,328a2.39,2.39,0,1,0,2.39,2.39,2.4,2.4,0,0,0-2.39-2.39Zm0,4.34a2,2,0,1,1,2-1.95,2,2,0,0,1-2,1.95Z" transform="translate(-310.57 -227.04)"/><path class="cls-4" d="M514.68,332.33a2,2,0,1,1,2-1.95,2,2,0,0,1-2,1.95Z" transform="translate(-310.57 -227.04)"/><path class="cls-2" d="M515.08,329.85a.42.42,0,0,0-.34-.14c-.15,0-.22.05-.22.18s.82.25.82.86a.59.59,0,0,1-.49.62v.33h-.33v-.31a1.23,1.23,0,0,1-.57-.24l.22-.33a.68.68,0,0,0,.44.18c.16,0,.24-.07.24-.2,0-.29-.82-.31-.82-.87a.56.56,0,0,1,.47-.59V329h.33v.33a.84.84,0,0,1,.47.26Z" transform="translate(-310.57 -227.04)"/><path class="cls-2" d="M494.46,328a2.39,2.39,0,1,0,2.39,2.39,2.4,2.4,0,0,0-2.39-2.39Zm0,4.34a1.95,1.95,0,1,1,2-1.95,2,2,0,0,1-2,1.95Z" transform="translate(-310.57 -227.04)"/><path class="cls-4" d="M494.46,332.33a1.95,1.95,0,1,1,2-1.95,2,2,0,0,1-2,1.95Z" transform="translate(-310.57 -227.04)"/><path class="cls-2" d="M494.84,329.85a.49.49,0,0,0-.33-.14c-.14,0-.22.05-.22.18s.82.25.82.86a.59.59,0,0,1-.49.62v.33h-.33v-.31a1.15,1.15,0,0,1-.56-.24l.23-.35a.7.7,0,0,0,.44.18c.17,0,.24-.07.24-.2,0-.29-.82-.31-.82-.87a.57.57,0,0,1,.47-.59V329h.33v.33a.9.9,0,0,1,.48.26Z" transform="translate(-310.57 -227.04)"/><path class="cls-2" d="M514.39,341.33a2.4,2.4,0,1,0,2.39,2.4,2.38,2.38,0,0,0-2.39-2.4Zm0,4.35a2,2,0,1,1,2-1.95,1.93,1.93,0,0,1-2,1.95Z" transform="translate(-310.57 -227.04)"/><path class="cls-4" d="M514.39,345.68a2,2,0,1,1,2-1.95,1.93,1.93,0,0,1-2,1.95Z" transform="translate(-310.57 -227.04)"/><path class="cls-2" d="M514.79,343.18a.46.46,0,0,0-.34-.15c-.15,0-.22.06-.22.18,0,.28.82.26.82.86a.56.56,0,0,1-.49.6V345h-.33v-.31a1.27,1.27,0,0,1-.57-.23l.22-.33a.72.72,0,0,0,.44.18c.16,0,.24-.07.24-.2,0-.29-.83-.31-.83-.88a.56.56,0,0,1,.48-.58v-.33h.33v.33a.86.86,0,0,1,.47.25Z" transform="translate(-310.57 -227.04)"/><path class="cls-2" d="M494.2,341.33a2.4,2.4,0,1,0,2.39,2.4,2.4,2.4,0,0,0-2.39-2.4Zm0,4.35a2,2,0,1,1,2-1.95,2,2,0,0,1-2,1.95Z" transform="translate(-310.57 -227.04)"/><path class="cls-4" d="M494.2,345.68a2,2,0,1,1,2-1.95,2,2,0,0,1-2,1.95Z" transform="translate(-310.57 -227.04)"/><path class="cls-2" d="M494.59,343.18a.46.46,0,0,0-.35-.15c-.15,0-.22.06-.22.18,0,.28.82.26.82.86a.55.55,0,0,1-.49.6V345H494v-.31a1.32,1.32,0,0,1-.57-.23l.22-.33a.74.74,0,0,0,.44.18c.16,0,.24-.07.24-.2,0-.29-.82-.31-.82-.88a.55.55,0,0,1,.47-.58v-.33h.33v.33a.83.83,0,0,1,.47.25Z" transform="translate(-310.57 -227.04)"/><text class="cls-9" transform="translate(18.11 71.36)"><tspan class="cls-10">D</tspan><tspan x="3.35" y="0">ecla</tspan><tspan class="cls-11" x="11.68" y="0">r</tspan><tspan class="cls-12" x="13.29" y="0">aciones</tspan></text><text class="cls-9" transform="translate(92.21 71)"><tspan class="cls-13">S</tspan><tspan x="2.5" y="0">e</tspan><tspan class="cls-14" x="5" y="0">r</tspan><tspan class="cls-15" x="6.76" y="0">vicios públi</tspan><tspan class="cls-16" x="30.32" y="0">c</tspan><tspan x="32.53" y="0">os </tspan><tspan x="0.57" y="6">en </tspan><tspan class="cls-16" x="6.91" y="6">c</tspan><tspan x="9.12" y="6">o</tspan><tspan class="cls-17" x="11.86" y="6">n</tspan><tspan x="14.62" y="6">t</tspan><tspan class="cls-11" x="16.27" y="6">ra</tspan><tspan class="cls-15" x="20.27" y="6">taciones</tspan></text><text class="cls-9" transform="translate(177.41 71.36)"><tspan class="cls-18">S</tspan><tspan x="2.48" y="0">ancionados</tspan></text><text class="cls-9" transform="translate(19.93 135.23)"><tspan class="cls-19">F</tspan><tspan x="2.31" y="0">iscalización</tspan></text><text class="cls-9" transform="translate(99.74 135.23)"><tspan class="cls-10">D</tspan><tspan x="3.35" y="0">enuncias</tspan></text><text class="cls-9" transform="translate(174.53 135.23)"><tspan class="cls-20">C</tspan><tspan class="cls-12" x="2.85" y="0">o</tspan><tspan class="cls-17" x="5.59" y="0">n</tspan><tspan class="cls-15" x="8.34" y="0">t</tspan><tspan class="cls-21" x="10" y="0">ra</tspan><tspan x="14" y="0">taciones</tspan></text></svg>